# xmcd
#
# Track frame offsets: 
#        150
#        24663
#        43304
#        65200
#        84846
#        105622
#        127734
#        147669
#        167315
#        183819
#        199713
#        214108
#        237735
#
# Disc length: 3451 seconds
#
# Revision: 0
# Processed by: cddbd v1.5.2PL0 Copyright (c) Steve Scherf et al.
# Submitted via: ExactAudioCopy v1.0b3
#
DISCID=b70d790d
DTITLE=群星 - DTS ES 正品 震撼360度-白金天王HD-CD2
DYEAR=2009
DGENRE=DTS
TTITLE0=为爱伤心你为痛
TTITLE1=爱到底怎么了
TTITLE2=风平浪静
TTITLE3=爱上他是为了忘了你
TTITLE4=最后一个情人
TTITLE5=爱琴海
TTITLE6=别在我离开之前离开
TTITLE7=我把自己的爱弄丢了
TTITLE8=做你的爱人
TTITLE9=最后一次温柔
TTITLE10=感动天感动地
TTITLE11=爱走了心碎了
TTITLE12=要我怎么忘了他
EXTD=
EXTT0=
EXTT1=
EXTT2=
EXTT3=
EXTT4=
EXTT5=
EXTT6=
EXTT7=
EXTT8=
EXTT9=
EXTT10=
EXTT11=
EXTT12=
PLAYORDER=
